<svg width="32" height="24" viewBox="0 0 32 24" fill="none" xmlns="http://www.w3.org/2000/svg">
<g clip-path="url(#clip0_425_2815)">
<path d="M17.8242 20.7571C13.2771 20.7571 9.55292 19.6773 7.93848 19.1206C8.37547 19.6388 8.84888 20.1232 9.36356 20.5571C11.699 22.5237 14.6148 23.2757 18.0354 22.7937C20.8783 22.3936 23.2041 21.3813 24.9836 19.7786C22.5 20.4944 20.0626 20.7547 17.8242 20.7547V20.7571Z" fill="white"/>
<path d="M17.4822 15.5295C18.1693 15.9875 18.8563 16.5635 19.5361 17.2793C19.6745 17.4263 19.6672 17.6553 19.5191 17.7927C19.4487 17.8577 19.3588 17.8915 19.269 17.8915C19.1719 17.8915 19.0748 17.8529 19.002 17.7758C13.0929 11.5359 6.61808 16.5755 6.34618 16.7924C6.34618 16.7924 6.34618 16.7924 6.34375 16.7924C6.59623 17.2431 6.87057 17.6818 7.1619 18.1036C7.22745 18.0939 7.29785 18.0987 7.3634 18.1277C7.45323 18.1662 16.4868 21.9405 25.8433 18.7422C25.8943 18.7254 25.9477 18.7206 25.9987 18.7254C26.2148 18.4699 26.4211 18.2072 26.6154 17.93C26.7173 17.7854 26.812 17.636 26.9067 17.489C23.1753 13.7798 18.9097 14.968 17.4846 15.5247L17.4822 15.5295Z" fill="#C37165"/>
<path d="M12.9447 5.87936C8.57963 5.47687 4.70739 4.64778 3.03711 4.25492C3.06139 4.68634 3.11722 5.43348 3.23376 6.38549C4.47676 6.98803 17.402 12.9435 29.1426 6.33488C29.06 5.1298 28.9192 4.18985 28.8318 3.69336C26.29 5.30334 22.5901 6.11796 17.7759 6.11796C16.2731 6.11796 14.6635 6.03843 12.9447 5.88177V5.87936Z" fill="white"/>
<path d="M16.8337 10.1668C14.8503 10.1668 13.0246 9.96678 11.4563 9.69684C7.49666 9.00995 4.52754 7.7856 3.34766 7.24814C3.70696 9.71612 4.4547 13.1337 5.99389 16.1464C6.77319 15.5776 11.6384 12.3022 16.7148 15.0666C17.3047 14.7895 22.7113 12.4565 27.2851 16.8501C29.021 13.688 29.2905 9.90652 29.1836 7.14209C24.9472 9.44378 20.604 10.1668 16.8337 10.1668Z" fill="#21201E"/>
<path d="M31.7135 3.25447C29.8004 2.8327 28.907 0.904582 28.8973 0.880481C28.8147 0.69731 28.5987 0.615365 28.4142 0.694899C28.2297 0.776844 28.1447 0.991347 28.2272 1.17452C28.2491 1.22513 28.5526 1.88069 29.1813 2.55553C22.1458 8.06753 4.5131 3.87388 2.5345 3.3798C2.72143 2.98936 2.86467 2.51215 2.9375 1.9313C2.96178 1.73126 2.81854 1.5505 2.61704 1.5264C2.41311 1.5023 2.23346 1.6445 2.20918 1.84454C1.93242 4.10284 0.376239 4.41134 0.303407 4.42339C0.104333 4.45713 -0.0291927 4.64512 0.00479558 4.84276C0.0339284 5.02111 0.189304 5.14643 0.366528 5.14643C0.38595 5.14643 0.4078 5.14643 0.427222 5.14161C0.485487 5.13197 1.41774 4.96326 2.13878 4.03054C2.14606 4.03295 2.15334 4.03777 2.16305 4.04018C2.16791 4.04018 2.21161 4.05223 2.29172 4.07392C2.32571 4.8283 2.4908 7.42884 3.1997 10.4584C4.61264 16.4934 7.07194 19.5832 8.88789 21.1136C10.9029 22.8128 13.3161 23.6684 16.0788 23.6684C16.7465 23.6684 17.4335 23.6178 18.14 23.519C22.1628 22.9502 25.2168 21.2125 27.2197 18.3492C29.429 15.1895 29.9218 11.22 29.9485 8.44592C29.9534 7.81928 29.9364 7.22639 29.9072 6.67929C29.9679 6.57083 29.9728 6.43586 29.9048 6.32017C29.8999 6.31053 29.8902 6.30089 29.883 6.29125C29.7737 4.69092 29.5576 3.55574 29.4921 3.23519C29.5455 3.19422 29.6038 3.15566 29.6572 3.11227C29.679 3.0954 29.696 3.07612 29.713 3.05684C30.1986 3.4521 30.8055 3.79916 31.5532 3.96546C31.5799 3.97028 31.6066 3.9751 31.6334 3.9751C31.8009 3.9751 31.9538 3.85942 31.9902 3.69071C32.0339 3.49549 31.9101 3.30026 31.711 3.25688L31.7135 3.25447ZM18.0356 22.7959C14.6149 23.2779 11.6992 22.526 9.36372 20.5593C8.84661 20.1255 8.37321 19.641 7.93864 19.1229C9.55309 19.6796 13.2772 20.7593 17.8244 20.7593C20.0628 20.7593 22.5002 20.4966 24.9838 19.7832C23.2043 21.386 20.876 22.3982 18.0356 22.7983V22.7959ZM25.9986 18.73C25.9476 18.7252 25.8966 18.73 25.8432 18.7469C16.4867 21.9427 7.45309 18.1684 7.36327 18.1323C7.29772 18.1034 7.22731 18.0985 7.16176 18.1082C6.86801 17.6864 6.5961 17.2478 6.34362 16.7971C6.34362 16.7971 6.34362 16.7971 6.34604 16.7971C6.61795 16.5802 13.0903 11.5405 19.0018 17.7804C19.0747 17.8575 19.1718 17.8961 19.2689 17.8961C19.3587 17.8961 19.4485 17.8624 19.5189 17.7973C19.667 17.6599 19.6743 17.4285 19.5359 17.2839C18.8586 16.5681 18.1691 15.9921 17.4821 15.5342C18.9096 14.9798 23.1727 13.7892 26.9041 17.4984C26.8094 17.6478 26.7148 17.7949 26.6128 17.9395C26.4186 18.2166 26.2122 18.4793 25.9961 18.7348L25.9986 18.73ZM27.2877 16.8501C22.7138 12.454 17.3073 14.7894 16.7173 15.0666C11.6409 12.3046 6.77575 15.5775 5.99645 16.1463C4.45727 13.1337 3.70952 9.71607 3.35022 7.24808C4.5301 7.78554 7.50165 9.0099 11.4589 9.69679C13.0272 9.96913 14.8528 10.1668 16.8363 10.1668C20.6066 10.1668 24.9474 9.44372 29.1862 7.14203C29.2954 9.90647 29.0235 13.688 27.2877 16.8501ZM29.1425 6.33464C17.402 12.9432 4.47669 6.98778 3.23369 6.38525C3.11715 5.43324 3.06132 4.6861 3.03704 4.25468C4.70732 4.64754 8.57956 5.47662 12.9446 5.87912C14.661 6.03819 16.2731 6.11531 17.7758 6.11531C22.59 6.11531 26.2899 5.30309 28.8317 3.69071C28.9191 4.1872 29.06 5.12715 29.1425 6.33223V6.33464Z" fill="#21201E"/>
</g>
<defs>
<clipPath id="clip0_425_2815">
<rect width="32" height="23" fill="white" transform="translate(0 0.666016)"/>
</clipPath>
</defs>
</svg>
