<svg width="22" height="20" viewBox="0 0 22 20" fill="none" xmlns="http://www.w3.org/2000/svg">
<g clip-path="url(#clip0_425_2994)">
<path d="M12.1747 9.17905C11.7681 9.20434 11.3762 9.21517 11.0026 9.21517C7.58717 9.21517 5.49577 8.26526 4.47021 7.62236C4.83465 8.60116 5.15148 9.76959 5.30348 11.1023C5.42984 12.213 5.58368 13.2749 5.83823 14.241C6.69714 13.6577 9.45698 12.0757 12.2553 13.5692C12.5538 13.2315 13.6947 12.0775 15.3741 11.9602C16.5956 11.8717 17.8098 12.3575 18.9855 13.3941C19.7455 11.1078 19.9616 8.47294 19.5624 6.15234C18.8335 7.03363 16.7641 8.90275 12.1765 9.17905H12.1747Z" fill="#21201E"/>
<path d="M15.4181 12.5021C14.0593 12.596 13.0722 13.5044 12.737 13.8566C13.2132 14.1726 13.6857 14.5843 14.149 15.1135C14.2479 15.2272 14.2369 15.4006 14.1197 15.4981C14.0666 15.5433 14.0025 15.5649 13.9384 15.5649C13.8615 15.5649 13.7827 15.5324 13.7296 15.471C12.2554 13.7861 10.5028 13.1649 8.51945 13.6272C7.24483 13.9234 6.27421 14.5916 5.99951 14.7956C6.81629 17.3528 8.51762 19.1208 12.6931 19.1208C15.1379 19.1208 16.7184 17.5533 17.6121 16.2367C18.0754 15.5559 18.4673 14.7812 18.7842 13.9523C17.6725 12.9139 16.5389 12.4245 15.4181 12.5021Z" fill="#CC807D"/>
<path d="M4.06754 6.64355C4.07669 6.65078 4.08768 6.65439 4.09684 6.66161C4.10233 6.66703 4.70485 7.24492 5.98862 7.77405C7.17717 8.26346 9.20997 8.80884 12.142 8.63186C17.7202 8.29596 19.3868 5.46068 19.4033 5.43179C19.4069 5.42637 19.4106 5.42276 19.4142 5.41734C19.2952 4.9153 19.145 4.43492 18.9637 3.97803C16.8375 5.60154 14.1528 6.43768 11.0431 6.43768C10.2483 6.43768 9.4279 6.3835 8.57998 6.27334C6.24135 5.97175 4.26166 5.33066 3.11523 4.89904C3.38261 5.30898 3.72691 5.89591 4.0657 6.64175L4.06754 6.64355Z" fill="white"/>
<path d="M0.276623 5.60508C0.294937 5.60508 0.315082 5.60508 0.333395 5.59966C0.359034 5.59424 0.963379 5.46602 1.619 4.99648C1.79481 4.87188 1.98344 4.71296 2.16841 4.51792C2.17756 4.53417 2.18672 4.55042 2.19954 4.56668C2.21968 4.59196 4.29277 7.13829 4.75244 11.1619C5.26522 15.6423 6.25598 19.6641 12.6913 19.6641C14.8194 19.6641 16.68 18.5842 18.07 16.5381C20.4068 13.1014 21.002 7.43808 19.4234 3.64566C19.4197 3.63663 19.4142 3.6276 19.4087 3.61857C19.6047 3.45243 19.7951 3.27545 19.9819 3.09486C20.394 3.46688 20.9599 3.71609 21.6741 3.8407C21.6906 3.84431 21.7071 3.84431 21.7236 3.84431C21.8554 3.84431 21.9726 3.75221 21.9964 3.61857C22.0239 3.47049 21.9232 3.32782 21.773 3.30254C21.1009 3.18515 20.5936 2.94316 20.2566 2.5874C20.242 2.55308 20.2218 2.52238 20.1925 2.4953C20.1816 2.48627 20.1687 2.48085 20.1578 2.47362C20.1321 2.44292 20.1065 2.41222 20.0845 2.37972C19.6468 1.74404 19.7951 1.00542 19.797 0.992776C19.8281 0.846497 19.7347 0.702024 19.5845 0.669518C19.4344 0.637011 19.2879 0.730919 19.2549 0.879003C19.2457 0.918734 19.0516 1.84517 19.6193 2.6795C19.6193 2.6795 19.6193 2.6813 19.6212 2.68311C13.7444 8.46925 4.15176 4.76352 2.53285 4.07547C2.84234 3.63483 3.10423 3.06235 3.22326 2.32735C3.24707 2.17926 3.14452 2.0384 2.99435 2.01492C2.84234 1.98964 2.70133 2.09258 2.67752 2.24066C2.29843 4.59376 0.307756 5.04705 0.219851 5.06511C0.0715121 5.09581 -0.0255495 5.24028 0.00741483 5.38837C0.0348851 5.51659 0.15026 5.60508 0.278455 5.60508H0.276623ZM17.6122 16.2365C16.7185 17.5512 15.138 19.1205 12.6932 19.1205C8.5177 19.1205 6.8182 17.3525 5.99959 14.7954C6.27612 14.5913 7.24674 13.9231 8.51953 13.6269C10.5029 13.1646 12.2555 13.7859 13.7297 15.4708C13.7847 15.534 13.8616 15.5647 13.9385 15.5647C14.0026 15.5647 14.0667 15.543 14.1198 15.4979C14.2352 15.4003 14.248 15.227 14.1491 15.1132C13.6858 14.5841 13.2133 14.1741 12.7371 13.8563C13.0723 13.5041 14.0594 12.5958 15.4182 12.5019C16.539 12.4242 17.6708 12.9118 18.7842 13.952C18.4674 14.7809 18.0755 15.5557 17.6122 16.2365ZM18.9857 13.3922C17.81 12.3538 16.5958 11.8698 15.3743 11.9583C13.6949 12.0775 12.5558 13.2314 12.2555 13.5673C9.45718 12.0739 6.69733 13.6576 5.83843 14.2391C5.58387 13.273 5.43187 12.2111 5.30368 11.1005C5.15167 9.7677 4.83485 8.59928 4.47041 7.62047C5.49597 8.26338 7.58737 9.21329 11.0028 9.21329C11.3783 9.21329 11.7683 9.20245 12.1749 9.17717C16.7624 8.90087 18.8319 7.02994 19.5607 6.15046C19.96 8.47106 19.7439 11.1059 18.9839 13.3922H18.9857ZM11.0431 6.43941C14.1528 6.43941 16.8375 5.60508 18.9637 3.97975C19.145 4.43484 19.2952 4.91702 19.4142 5.41907C19.4106 5.42448 19.4069 5.4281 19.4032 5.43351C19.3868 5.46241 17.7202 8.29588 12.1419 8.63359C9.20811 8.81057 7.17532 8.26518 5.9886 7.77578C4.70483 7.24665 4.10231 6.66876 4.09682 6.66334C4.08766 6.65431 4.07667 6.6525 4.06752 6.64528C3.72689 5.89944 3.38259 5.31252 3.11705 4.90258C4.26347 5.33599 6.24316 5.97529 8.58179 6.27687C9.42788 6.38704 10.2502 6.44121 11.045 6.44121L11.0431 6.43941Z" fill="#21201E"/>
</g>
<defs>
<clipPath id="clip0_425_2994">
<rect width="22" height="19" fill="white" transform="translate(0 0.666016)"/>
</clipPath>
</defs>
</svg>
