<svg width="18" height="27" viewBox="0 0 18 27" fill="none" xmlns="http://www.w3.org/2000/svg">
<g clip-path="url(#clip0_425_2821)">
<path d="M14.4296 5.05851C14.3387 4.89621 14.2457 4.73629 14.1447 4.58586C12.849 2.59774 11.0269 1.66661 8.72781 1.81618C8.69537 1.81829 8.66292 1.8204 8.63048 1.82252C6.63792 1.97681 4.63449 3.19943 3.25354 5.54335C4.76416 5.02566 8.9362 3.91765 14.4296 5.05851Z" fill="white"/>
<path d="M6.27028 5.50886C4.17457 5.84706 2.91529 6.38877 2.9026 6.39408C2.86671 6.40987 2.82807 6.41687 2.7913 6.41926C1.81842 8.49217 1.28267 11.2745 1.50791 14.8036C1.63913 16.854 1.99514 18.587 2.50356 20.0253C2.99621 19.3181 4.37085 17.6116 6.22226 17.4911C6.24605 17.4896 6.26768 17.4882 6.29147 17.4866C7.09938 17.452 7.88611 17.7261 8.64471 18.3025C9.09334 17.7866 10.1566 16.7687 11.6273 16.673L11.6446 16.6719C12.8433 16.6006 14.0264 17.1584 15.1627 18.3315C16.4296 14.102 16.3126 9.1641 14.8188 5.83418C11.2376 5.00628 8.19413 5.19979 6.27028 5.50886Z" fill="#21201E"/>
<path d="M14.9179 19.0405C13.8524 17.8538 12.7663 17.2853 11.691 17.3485L11.6715 17.3498C10.4603 17.4285 9.54363 18.2956 9.15106 18.7383C9.48936 19.064 9.82278 19.4482 10.1496 19.898C10.2571 20.048 10.2295 20.2584 10.0848 20.3709C10.0332 20.4124 9.9715 20.4321 9.91094 20.4361C9.80496 20.443 9.6955 20.3963 9.62623 20.2999C9.28498 19.8286 8.938 19.4363 8.58932 19.118C8.55168 19.107 8.51807 19.0913 8.48389 19.0666C8.44047 19.0335 8.40728 18.9908 8.38462 18.9429C7.71023 18.3925 7.01984 18.1301 6.32238 18.1598C6.30508 18.1609 6.28561 18.1622 6.26831 18.1633C4.31092 18.2906 2.87907 20.6536 2.86553 20.6791C2.84608 20.714 2.81956 20.7404 2.79073 20.7647C4.20608 24.1244 6.52101 25.6201 8.62549 25.5168C10.8171 25.4169 12.7863 23.7681 14.1763 20.8965C14.4615 20.306 14.7124 19.6886 14.9316 19.0508C14.927 19.0466 14.9225 19.0447 14.92 19.0404L14.9179 19.0405Z" fill="#B7572A"/>
<path d="M8.58014 1.14612C2.7021 1.60477 0.455361 8.56926 0.854847 14.8435C1.04972 17.9058 1.85212 20.7245 3.11297 22.7776C4.55117 25.1198 6.46999 26.3026 8.65882 26.1938C8.68694 26.192 8.71505 26.1902 8.74317 26.1884C11.1439 26.0322 13.2792 24.2649 14.761 21.2012C17.3478 15.8586 17.3145 8.23505 14.6872 4.20732C13.2516 2.00626 11.1388 0.946018 8.58014 1.14612ZM8.63051 1.82019C8.66295 1.81807 8.6954 1.81596 8.72784 1.81385C11.027 1.66428 12.8469 2.59555 14.1448 4.58353C14.2437 4.73633 14.3365 4.89402 14.4296 5.05618C8.93623 3.91532 4.76419 5.02333 3.25357 5.54102C4.63683 3.19919 6.63809 1.97672 8.63051 1.82019ZM14.1744 20.8985C12.7844 23.7701 10.8152 25.4188 8.62359 25.5188C6.51911 25.6221 4.20418 24.1264 2.78883 20.7667C2.81766 20.7424 2.84418 20.716 2.86363 20.6811C2.87732 20.6578 4.30902 18.2926 6.26641 18.1653C6.28371 18.1641 6.30318 18.1629 6.32048 18.1617C7.01794 18.1321 7.70617 18.3946 8.38272 18.9449C8.40538 18.9928 8.43857 19.0355 8.48198 19.0685C8.51401 19.0934 8.54978 19.109 8.58742 19.12C8.93811 19.4359 9.28308 19.8306 9.62433 20.3018C9.69359 20.3982 9.8009 20.4451 9.90904 20.4381C9.9696 20.4341 10.0312 20.4122 10.0829 20.3729C10.2278 20.2626 10.2574 20.0498 10.1477 19.8999C9.82305 19.4501 9.48948 19.0636 9.14916 18.7403C9.54173 18.2976 10.4605 17.4304 11.6696 17.3517L11.6891 17.3505C12.7644 17.2872 13.8506 17.858 14.916 19.0425C14.9206 19.0467 14.9251 19.0486 14.9275 19.0529C14.7084 19.6907 14.4576 20.3104 14.1723 20.8986L14.1744 20.8985ZM15.1629 18.3311C14.0267 17.158 12.8435 16.6002 11.6449 16.6715L11.6276 16.6726C10.1568 16.7683 9.09361 17.7862 8.64498 18.3021C7.88637 17.7257 7.09951 17.4494 6.29174 17.4863C6.26795 17.4878 6.24632 17.4892 6.22253 17.4908C4.37112 17.6112 2.99648 19.3177 2.50383 20.0249C1.9954 18.5867 1.6394 16.8536 1.50818 14.8032C1.28308 11.2764 1.81869 8.49178 2.79171 6.42111C2.82848 6.41872 2.86712 6.41172 2.90302 6.39593C2.9157 6.39062 4.17484 5.84667 6.2707 5.51071C8.19454 5.20164 11.238 5.00813 14.8192 5.83603C16.3131 9.16819 16.43 14.1039 15.1631 18.3334L15.1629 18.3311Z" fill="#21201E"/>
</g>
<defs>
<clipPath id="clip0_425_2821">
<rect width="16" height="25" fill="white" transform="translate(0 1.70459) rotate(-3.72217)"/>
</clipPath>
</defs>
</svg>
