<svg width="2" height="2" viewBox="0 0 2 2" fill="none" xmlns="http://www.w3.org/2000/svg">
<path d="M0.740738 0.193519L1.06769 0.0273438C1.09742 0.0946078 1.0994 0.153956 1.0994 0.197479C1.0994 0.24496 1.09345 0.28453 1.0875 0.324097C1.07363 0.401253 1.0558 0.472469 1.03598 0.541711C0.996352 0.680196 0.948809 0.810773 0.901252 0.943323C0.808121 1.20447 0.703085 1.45967 0.637695 1.72872C0.641658 1.44978 0.689225 1.17281 0.722911 0.899793C0.740745 0.763287 0.756591 0.626782 0.766499 0.494233C0.770462 0.428947 0.772445 0.361689 0.768482 0.302338C0.768482 0.272663 0.762528 0.244959 0.758565 0.221219C0.75262 0.197478 0.744703 0.185616 0.742721 0.191551L0.740738 0.193519Z" fill="#21201E"/>
</svg>
