<svg width="16" height="22" viewBox="0 0 16 22" fill="none" xmlns="http://www.w3.org/2000/svg">
<path d="M0.15918 21.4377C0.247723 21.4093 8.97458 18.6546 10.7012 17.8866C12.9254 16.8968 14.4926 15.7651 15.0735 14.7381C15.0575 14.7487 15.0416 14.7576 15.0274 14.7682C14.0676 15.3908 12.0701 16.6875 9.52355 15.8875C8.07321 15.4316 6.13942 12.6858 5.05564 10.3338C4.49605 9.12053 3.64426 6.88202 4.21803 5.53218C5.17607 3.27948 9.1251 0.368706 11.1404 0.930994L10.9916 1.46844C9.27741 0.991297 5.57983 3.7513 4.72981 5.75035C4.37209 6.59289 4.6749 8.17688 5.56034 10.0997C6.73443 12.6521 8.58677 15.0095 9.69002 15.3554C11.9868 16.0773 13.7683 14.9226 14.7246 14.3017C15.1957 13.9967 15.4312 13.8441 15.6579 14.0179C15.8792 14.1882 15.7765 14.5057 15.7216 14.676L15.7145 14.6955C15.0292 16.37 12.4207 17.7322 10.9279 18.3974C9.17293 19.1779 0.686912 21.8563 0.327425 21.9698L0.160952 21.4377H0.15918Z" fill="#21201E"/>
</svg>
