<svg width="16" height="22" viewBox="0 0 16 22" fill="none" xmlns="http://www.w3.org/2000/svg">
<path d="M15.6798 21.9698C15.3203 21.8563 6.83428 19.1779 5.07935 18.3974C3.5865 17.734 0.979781 16.37 0.292683 14.6955L0.285599 14.676C0.230702 14.5057 0.127991 14.1882 0.34935 14.0179C0.576022 13.8423 0.813319 13.9967 1.2826 14.3017C2.23887 14.9226 4.02037 16.0791 6.31719 15.3554C7.41867 15.0095 9.271 12.6504 10.4469 10.0997C11.3323 8.17688 11.6351 6.59112 11.2774 5.75035C10.4274 3.7513 6.7298 0.989523 5.0156 1.46844L4.86684 0.930994C6.88387 0.368706 10.8329 3.27948 11.7892 5.53218C12.3629 6.88202 11.5112 9.12053 10.9516 10.3338C9.86779 12.6858 7.93399 15.4316 6.48365 15.8875C3.93714 16.6875 1.93959 15.3926 0.979781 14.7682C0.963843 14.7576 0.947905 14.7487 0.933738 14.7381C1.51458 15.7633 3.08181 16.8968 5.30602 17.8866C7.03262 18.6546 15.7595 21.4093 15.848 21.4377L15.6816 21.9698H15.6798Z" fill="#21201E"/>
</svg>
