<svg width="1" height="2" viewBox="0 0 1 2" fill="none" xmlns="http://www.w3.org/2000/svg">
<path d="M0.484464 1.63312L0.300293 0.969727C0.330398 1.02117 0.355189 1.07084 0.41717 1.1205C0.433108 1.13292 0.447275 1.14888 0.461442 1.16485C0.475609 1.18259 0.47738 1.19855 0.480921 1.21628C0.480921 1.24821 0.472067 1.27482 0.463213 1.3032L0.43488 1.3369C0.43488 1.3369 0.426025 1.34931 0.422484 1.35463L0.41717 1.36351C0.41717 1.36351 0.411858 1.37415 0.420712 1.35641C0.438421 1.32448 0.431337 1.3103 0.433108 1.34223V1.35109L0.436649 1.37593C0.43842 1.39189 0.441963 1.40785 0.445504 1.42381L0.472068 1.54443C0.480922 1.57104 0.479151 1.6012 0.482693 1.63135L0.484464 1.63312Z" fill="#21201E"/>
</svg>
