<svg width="2" height="3" viewBox="0 0 2 3" fill="none" xmlns="http://www.w3.org/2000/svg">
<path d="M1.05555 0.928596C1.05967 0.953283 1.06996 0.98414 1.0823 1.01706C1.10699 1.08083 1.13993 1.14667 1.17491 1.21455C1.24692 1.34827 1.3292 1.48199 1.4115 1.61366C1.57611 1.8811 1.75513 2.14442 1.89299 2.43037C1.69752 2.1835 1.46913 1.96956 1.24898 1.7412C1.13787 1.62806 1.02674 1.51491 0.919748 1.39147C0.866251 1.32976 0.812778 1.26392 0.763397 1.18986C0.738706 1.15283 0.713996 1.11374 0.691363 1.06437C0.670787 1.01705 0.644043 0.957393 0.644043 0.873047L1.05967 0.889508C1.05967 0.889508 1.05144 0.899793 1.05761 0.926537L1.05555 0.928596Z" fill="#21201E"/>
</svg>
