<svg width="2" height="2" viewBox="0 0 2 2" fill="none" xmlns="http://www.w3.org/2000/svg">
<path d="M1.24913 0.432502C1.24502 0.457189 1.23473 0.488046 1.22239 0.520962C1.1977 0.584736 1.16477 0.650572 1.1298 0.71846C1.05778 0.85218 0.97548 0.985901 0.893178 1.11756C0.728574 1.385 0.549568 1.64832 0.411712 1.93428C0.60718 1.68741 0.835567 1.47346 1.05572 1.24511C1.16683 1.13196 1.27794 1.01881 1.38493 0.895379C1.43843 0.833662 1.49193 0.767822 1.54131 0.693762C1.566 0.656732 1.59069 0.617647 1.61332 0.568274C1.6339 0.520958 1.66064 0.4613 1.66064 0.376953L1.24502 0.393414C1.24502 0.393414 1.25325 0.403699 1.24708 0.430443L1.24913 0.432502Z" fill="#21201E"/>
</svg>
