<svg width="1" height="2" viewBox="0 0 1 2" fill="none" xmlns="http://www.w3.org/2000/svg">
<path d="M0.0844727 1.29887L0.131802 0.568848C0.131802 0.598523 0.141665 0.630169 0.139693 0.659844V0.790422C0.13772 0.808228 0.13772 0.826035 0.139693 0.841862V0.867581L0.141667 0.877483C0.147583 0.911115 0.151524 0.895276 0.125886 0.865601C0.114053 0.847796 0.119972 0.855701 0.121944 0.85768L0.129834 0.865601C0.129834 0.865601 0.139692 0.877487 0.145609 0.881443L0.18308 0.909119C0.198857 0.936816 0.214635 0.962547 0.220551 0.996179C0.220551 1.01398 0.220554 1.0318 0.210693 1.05356C0.19886 1.07532 0.187027 1.09311 0.173222 1.11092C0.119974 1.1762 0.106166 1.23358 0.0844727 1.29293V1.29887Z" fill="#21201E"/>
</svg>
