<svg width="13" height="14" viewBox="0 0 13 14" fill="none" xmlns="http://www.w3.org/2000/svg">
<path d="M2.4487 11.8336C3.05362 11.2946 3.75936 10.6322 4.50419 9.85659C4.87661 9.46983 5.25931 9.05426 5.64407 8.61402C5.83748 8.39389 6.03089 8.16966 6.22636 7.93925C6.42183 7.70884 6.61524 7.47226 6.81482 7.24391C7.62549 6.32021 8.43411 5.46441 9.15014 4.6662C9.86822 3.87006 10.4999 3.13768 11.0081 2.50405C11.5163 1.87043 11.899 1.33554 12.1418 0.950835C12.3846 0.566133 12.4916 0.339844 12.4937 0.339844C12.4937 0.339844 12.3661 0.555854 12.0965 0.919984C11.827 1.28411 11.4114 1.78814 10.8723 2.38885C10.3332 2.98956 9.6707 3.68902 8.92998 4.46048C8.19132 5.23606 7.36624 6.07334 6.54734 7.00938C3.45484 10.8667 0.42407 13.5041 0.438472 13.5205C0.436415 13.5185 1.2368 12.9136 2.45076 11.8356L2.4487 11.8336Z" fill="#21201E"/>
</svg>
