<svg width="11" height="13" viewBox="0 0 11 13" fill="none" xmlns="http://www.w3.org/2000/svg">
<path d="M10.3447 0.417969C10.3585 0.431817 7.74888 2.81773 5.11148 6.2759C4.41003 7.11472 3.70262 7.87045 3.07052 8.56881C2.43644 9.26321 1.86774 9.89231 1.40605 10.4324C0.944356 10.9725 0.589665 11.4255 0.359809 11.75C0.129953 12.0744 0.0229492 12.2683 0.0229492 12.2683C0.0229492 12.2683 0.112122 12.0665 0.318199 11.7243C0.522295 11.382 0.849242 10.9013 1.28121 10.3335C1.71516 9.7657 2.25414 9.10889 2.86841 8.39273C3.4807 7.67459 4.17422 6.90501 4.86577 6.07608C5.03816 5.87034 5.20065 5.65864 5.36908 5.45092C5.53553 5.24517 5.70198 5.04139 5.86644 4.84553C6.19537 4.45184 6.52232 4.07795 6.84333 3.72976C7.48137 3.0314 8.08772 2.43393 8.60886 1.94726C9.65312 0.973907 10.3447 0.423908 10.3427 0.421929L10.3447 0.417969Z" fill="#21201E"/>
</svg>
