<svg width="1" height="2" viewBox="0 0 1 2" fill="none" xmlns="http://www.w3.org/2000/svg">
<path d="M0.531632 1.54785L0.558177 1.42723C0.561719 1.41127 0.56527 1.3953 0.56704 1.37934L0.570586 1.3545V1.34563C0.574127 1.31371 0.567036 1.32613 0.584745 1.35983C0.593599 1.37934 0.58829 1.37047 0.58829 1.36692L0.582972 1.35805C0.582972 1.35805 0.575898 1.34564 0.570586 1.34032L0.542246 1.30662C0.533391 1.27824 0.524541 1.24986 0.524541 1.2197C0.528083 1.20374 0.529851 1.18599 0.544018 1.16826C0.558185 1.15052 0.572352 1.13633 0.58829 1.12391C0.650271 1.07247 0.673298 1.02458 0.705174 0.973145L0.520996 1.63654C0.524538 1.60816 0.524548 1.578 0.531632 1.54962V1.54785Z" fill="#21201E"/>
</svg>
