<svg width="1" height="2" viewBox="0 0 1 2" fill="none" xmlns="http://www.w3.org/2000/svg">
<path d="M0.286075 0.435873C0.269614 0.454388 0.255212 0.47496 0.242866 0.499647C0.230521 0.522277 0.230521 0.544908 0.230521 0.56548C0.236694 0.60251 0.255211 0.633366 0.271672 0.666282L0.312822 0.699205C0.312822 0.699205 0.325168 0.711541 0.331341 0.717713L0.339571 0.727996C0.339571 0.727996 0.347801 0.740344 0.335455 0.719772C0.30665 0.684799 0.312823 0.666285 0.316938 0.707429V0.719772L0.318996 0.748576C0.318996 0.769149 0.318996 0.787659 0.318996 0.808231L0.312822 0.958418C0.308707 0.993391 0.316939 1.02835 0.318996 1.06333L0.393066 0.236328C0.368376 0.304217 0.349859 0.367991 0.286075 0.442051V0.435873Z" fill="#21201E"/>
</svg>
