<svg width="5" height="15" viewBox="0 0 5 15" fill="none" xmlns="http://www.w3.org/2000/svg">
<path d="M0.0978182 15.0056C0.0799846 14.9977 1.53838 11.7809 2.60047 7.56499C2.91553 6.51646 3.26624 5.5451 3.57338 4.65484C3.8825 3.76655 4.15793 2.96532 4.36995 2.28872C4.58197 1.61014 4.73058 1.05422 4.81183 0.666466C4.89505 0.278708 4.91685 0.0571289 4.91685 0.0571289C4.91685 0.0571289 4.91486 0.278716 4.85938 0.674387C4.80588 1.07006 4.6969 1.63982 4.52055 2.33027C4.34618 3.02269 4.10839 3.83975 3.82702 4.73792C3.54763 5.63808 3.21274 6.61934 2.90363 7.65204C2.82635 7.90922 2.76096 8.16839 2.68765 8.4236C2.61631 8.67881 2.543 8.93006 2.46969 9.17537C2.32107 9.66798 2.16848 10.1388 2.01194 10.5859C1.70085 11.4782 1.37785 12.2656 1.09054 12.9184C0.513914 14.2241 0.0938552 14.9997 0.0978182 15.0016V15.0056Z" fill="#21201E"/>
</svg>
