<svg width="5" height="11" viewBox="0 0 5 11" fill="none" xmlns="http://www.w3.org/2000/svg">
<path d="M4.48348 10.5189C4.4629 10.2967 4.41557 9.57872 4.26948 8.56656C4.12134 7.5544 3.86208 6.24189 3.33947 4.88823C3.05141 4.13734 2.70781 3.45022 2.35186 2.85157C1.99385 2.25291 1.62555 1.74067 1.29839 1.32717C0.637922 0.50016 0.158509 0.0475715 0.162624 0.043457C0.158509 0.0475715 0.66672 0.467238 1.36834 1.26956C1.71607 1.67277 2.10699 2.17475 2.48352 2.7734C2.86005 3.37 3.21809 4.06328 3.51026 4.82446C4.04111 6.19869 4.26537 7.53383 4.37442 8.55422C4.48141 9.57872 4.48552 10.2967 4.48963 10.5209L4.43819 10.5785L4.48348 10.5209V10.5189Z" fill="#21201E"/>
</svg>
