<svg width="1" height="2" viewBox="0 0 1 2" fill="none" xmlns="http://www.w3.org/2000/svg">
<path d="M0.760353 0.455078L1.00408 1.14354C0.990205 1.11584 0.970396 1.09013 0.960488 1.06243L0.91095 0.941758C0.905006 0.925931 0.897082 0.910094 0.889156 0.894267L0.877256 0.870528L0.873313 0.860639C0.855479 0.830963 0.857456 0.846794 0.893123 0.864599C0.912938 0.876469 0.903014 0.870528 0.901033 0.870528L0.89114 0.866579C0.89114 0.866579 0.877272 0.860637 0.869346 0.858658L0.823775 0.846789C0.799997 0.827005 0.774218 0.809209 0.754403 0.781512C0.746477 0.765685 0.738561 0.747874 0.740543 0.726112C0.740543 0.702372 0.746475 0.680604 0.752419 0.658842C0.776197 0.57773 0.766299 0.520364 0.762336 0.455078H0.760353Z" fill="#21201E"/>
</svg>
