<svg width="9" height="10" viewBox="0 0 9 10" fill="none" xmlns="http://www.w3.org/2000/svg">
<path d="M7.89136 8.9267C7.69383 8.71275 7.41606 8.39799 7.07863 8.00301C6.40169 7.21509 5.48402 6.11036 4.46965 4.89248C3.45528 3.6746 2.5335 2.57192 1.86068 1.77989C1.18992 0.985795 0.764007 0.502344 0.764007 0.504401L1.8257 1.80869C2.48 2.61512 3.38532 3.73219 4.3997 4.95007C5.41407 6.17001 6.35025 7.25829 7.04364 8.03387C7.39137 8.42063 7.67737 8.7292 7.88107 8.93698C8.08477 9.14476 8.2041 9.2538 8.2041 9.2538C8.2041 9.2538 8.08888 9.14271 7.89136 8.92876V8.9267Z" fill="#21201E"/>
</svg>
