<svg width="2" height="3" viewBox="0 0 2 3" fill="none" xmlns="http://www.w3.org/2000/svg">
<path d="M1.23912 2.21085L0.874512 2.23459C0.874512 2.16139 0.894327 2.10598 0.912161 2.06443C0.931976 2.02289 0.951791 1.98729 0.973587 1.95366C1.01718 1.88639 1.06078 1.82902 1.10635 1.77362C1.1975 1.66283 1.29262 1.55997 1.38773 1.45907C1.57597 1.2553 1.77412 1.06142 1.93859 0.839844C1.82564 1.09307 1.67306 1.33049 1.53238 1.56789C1.46302 1.68659 1.39367 1.80528 1.33225 1.92398C1.30252 1.98333 1.27478 2.04268 1.25497 2.09807C1.24506 2.12577 1.23713 2.15347 1.23317 2.17523C1.22921 2.19897 1.23317 2.21283 1.23713 2.20887L1.23912 2.21085Z" fill="#21201E"/>
</svg>
