<svg width="2" height="2" viewBox="0 0 2 2" fill="none" xmlns="http://www.w3.org/2000/svg">
<path d="M1.01862 0.931967C1.03508 0.950482 1.04947 0.971054 1.06182 0.995741C1.07416 1.01837 1.07418 1.041 1.07418 1.06157C1.068 1.0986 1.04949 1.12946 1.03303 1.16238L0.991869 1.1953C0.991869 1.1953 0.97953 1.20763 0.973358 1.21381L0.965119 1.22409C0.965119 1.22409 0.956893 1.23644 0.969238 1.21587C0.998044 1.18089 0.991864 1.16238 0.987749 1.20352V1.21587L0.98569 1.24467C0.98569 1.26524 0.98569 1.28375 0.98569 1.30433L0.991869 1.45451C0.995984 1.48948 0.987747 1.52445 0.98569 1.55942L0.911621 0.732422C0.936312 0.80031 0.954834 0.864085 1.01862 0.938145V0.931967Z" fill="#21201E"/>
</svg>
