<svg width="8" height="9" viewBox="0 0 8 9" fill="none" xmlns="http://www.w3.org/2000/svg">
<path d="M0.413337 8.42279C0.610862 8.20884 0.888621 7.89409 1.22606 7.4991C1.90299 6.71118 2.82067 5.60645 3.83504 4.38857C4.84941 3.17069 5.77118 2.06801 6.444 1.27598C7.11476 0.481889 7.54069 -0.00156241 7.54069 0.000494821L6.47899 1.30478C5.82469 2.11122 4.91936 3.22829 3.90499 4.44617C2.89062 5.6661 1.95444 6.75439 1.26105 7.52996C0.913321 7.91672 0.627307 8.2253 0.42361 8.43308C0.219913 8.64086 0.100586 8.7499 0.100586 8.7499C0.100586 8.7499 0.215813 8.6388 0.413337 8.42485V8.42279Z" fill="#21201E"/>
</svg>
