<svg width="13" height="15" viewBox="0 0 13 15" fill="none" xmlns="http://www.w3.org/2000/svg">
<path d="M10.856 12.3297C10.2511 11.7907 9.54532 11.1283 8.80049 10.3527C8.42807 9.96593 8.04536 9.55036 7.6606 9.11011C7.46719 8.88999 7.27379 8.66575 7.07832 8.43534C6.88285 8.20493 6.68945 7.96835 6.48986 7.74C5.67919 6.8163 4.87058 5.9605 4.15455 5.1623C3.43647 4.36615 2.80479 3.63377 2.29658 3.00015C1.78836 2.36652 1.40566 1.83163 1.16287 1.44693C0.920077 1.06223 0.813093 0.835938 0.811035 0.835938C0.811035 0.835938 0.938589 1.05195 1.20813 1.41608C1.47767 1.78021 1.89331 2.28423 2.43238 2.88494C2.97146 3.48565 3.63398 4.18511 4.3747 4.95657C5.11336 5.73215 5.93843 6.56943 6.75733 7.50547C9.84983 11.3628 12.8806 14.0002 12.8662 14.0166C12.8683 14.0146 12.0679 13.4097 10.8539 12.3317L10.856 12.3297Z" fill="#21201E"/>
</svg>
