<svg width="6" height="12" viewBox="0 0 6 12" fill="none" xmlns="http://www.w3.org/2000/svg">
<path d="M0.821211 11.0228C0.841787 10.8006 0.88911 10.0826 1.0352 9.07046C1.18334 8.05831 1.44259 6.74579 1.96521 5.39214C2.25326 4.64125 2.59688 3.95413 2.95283 3.35547C3.31085 2.75682 3.67915 2.24458 4.0063 1.83107C4.66677 1.00407 5.14618 0.551478 5.14206 0.547363C5.14618 0.551478 4.63796 0.971145 3.93634 1.77346C3.58861 2.17668 3.19768 2.67866 2.82115 3.27731C2.44462 3.87391 2.0866 4.56719 1.79443 5.32836C1.26358 6.70259 1.03931 8.03774 0.930261 9.05812C0.823268 10.0826 0.819154 10.8006 0.815039 11.0248L0.866477 11.0824L0.821211 11.0248V11.0228Z" fill="#21201E"/>
</svg>
